ffmpeg started on 2025-05-13 at 10:16:16
Report written to "D:\Convert\FFMetrics\reports\ssim_report-6.txt"
Log level: 32
Command line:
ffmpeg -hide_banner -nostdin -i "G:\\\xc0\xed\xe8\xec\xe5\\\xce\xed\xe3\xee\xe8\xed\xe3\xe8\\!_35_\xcb\xe5\xf2\xee_2024\\DreamCast-1\\\xd3 \xec\xee\xe5\xe9 \xe6\xe5\xed\xfb \xed\xe5\xf2 \xfd\xec\xee\xf6\xe8\xe9\\[DC] Boku no Tsuma wa Kanjou ga Nai - 06_Telegram_HEVC.mkv" -i "G:\\\xc0\xed\xe8\xec\xe5\\\xce\xed\xe3\xee\xe8\xed\xe3\xe8\\!_35_\xcb\xe5\xf2\xee_2024\\DreamCast-1\\\xd3 \xec\xee\xe5\xe9 \xe6\xe5\xed\xfb \xed\xe5\xf2 \xfd\xec\xee\xf6\xe8\xe9\\[DC] Boku no Tsuma wa Kanjou ga Nai - 06_Telegram.mp4" -lavfi "[0:v]settb=AVTB,setpts=PTS-STARTPTS,format=pix_fmts=yuv420p10,fps=24000/1001,scale=1920:1080:flags=bicubic[main];[1:v]settb=AVTB,setpts=PTS-STARTPTS,format=pix_fmts=yuv420p,fps=24000/1001,scale=1920:1080:flags=bicubic[ref];[main][ref]ssim=eof_action=endall:stats_file='D\\:/Convert/FFMetrics/logs/ssim_logfile-6.txt'" -f null -
Input #0, matroska,webm, from 'G:\Аниме\Онгоинги\!_35_Лето_2024\DreamCast-1\У моей жены нет эмоций\[DC] Boku no Tsuma wa Kanjou ga Nai - 06_Telegram_HEVC.mkv':
  Metadata:
    COMPATIBLE_BRANDS: isomiso2avc1mp41
    MAJOR_BRAND     : isom
    MINOR_VERSION   : 512
    ENCODER         : Lavf61.7.100
  Duration: 00:23:46.65, start: -0.021000, bitrate: 962 kb/s
  Stream #0:0: Video: hevc (Main 10), yuv420p10le(tv, bt709, progressive), 1920x1080 [SAR 1:1 DAR 16:9], 23.98 fps, 23.98 tbr, 1k tbn (default)
      Metadata:
        HANDLER_NAME    : VideoHandler
        VENDOR_ID       : [0][0][0][0]
        ENCODER         : Lavc61.19.100 libx265
        BPS             : 765627
        DURATION        : 00:23:46.549708333
        NUMBER_OF_FRAMES: 34203
        NUMBER_OF_BYTES : 136525619
        _STATISTICS_WRITING_APP: mkvpropedit v66.0.0 ('Josie') 64-bit
        _STATISTICS_WRITING_DATE_UTC: 2025-05-11 12:48:47
        _STATISTICS_TAGS: BPS DURATION NUMBER_OF_FRAMES NUMBER_OF_BYTES
  Stream #0:1: Audio: aac (LC), 48000 Hz, stereo, fltp (default)
      Metadata:
        HANDLER_NAME    : SoundHandler
        VENDOR_ID       : [0][0][0][0]
        ENCODER         : Lavc61.19.100 aac
        BPS             : 193261
        DURATION        : 00:23:46.645000000
        NUMBER_OF_FRAMES: 66875
        NUMBER_OF_BYTES : 34464370
        _STATISTICS_WRITING_APP: mkvpropedit v66.0.0 ('Josie') 64-bit
        _STATISTICS_WRITING_DATE_UTC: 2025-05-11 12:48:47
        _STATISTICS_TAGS: BPS DURATION NUMBER_OF_FRAMES NUMBER_OF_BYTES
Input #1, mov,mp4,m4a,3gp,3g2,mj2, from 'G:\Аниме\Онгоинги\!_35_Лето_2024\DreamCast-1\У моей жены нет эмоций\[DC] Boku no Tsuma wa Kanjou ga Nai - 06_Telegram.mp4':
  Metadata:
    major_brand     : isom
    minor_version   : 512
    compatible_brands: isomiso2avc1mp41
    encoder         : Lavf61.1.100
  Duration: 00:23:46.62, start: 0.000000, bitrate: 3884 kb/s
  Stream #1:0[0x1](und): Video: h264 (High) (avc1 / 0x31637661), yuv420p(tv, bt709, progressive), 1920x1080 [SAR 1:1 DAR 16:9], 3736 kb/s, 23.98 fps, 23.98 tbr, 24k tbn (default)
      Metadata:
        handler_name    : VideoHandler
        vendor_id       : [0][0][0][0]
        encoder         : Lavc61.3.100 h264_qsv
  Stream #1:1[0x2](und): Audio: aac (HE-AACv2) (mp4a / 0x6134706D), 48000 Hz, stereo, fltp, 144 kb/s (default)
      Metadata:
        handler_name    : SoundHandler
        vendor_id       : [0][0][0][0]
Stream mapping:
  Stream #0:0 (hevc) -> settb:default
  Stream #1:0 (h264) -> settb:default
  ssim:default -> Stream #0:0 (wrapped_avframe)
  Stream #0:1 -> #0:1 (aac (native) -> pcm_s16le (native))
Output #0, null, to 'pipe:':
  Metadata:
    COMPATIBLE_BRANDS: isomiso2avc1mp41
    MAJOR_BRAND     : isom
    MINOR_VERSION   : 512
    encoder         : Lavf61.7.100
  Stream #0:0: Video: wrapped_avframe, yuv420p10le(tv, bt709, progressive), 1920x1080 [SAR 1:1 DAR 16:9], q=2-31, 200 kb/s, 23.98 fps, 23.98 tbn
      Metadata:
        encoder         : Lavc61.19.100 wrapped_avframe
  Stream #0:1: Audio: pcm_s16le, 48000 Hz, stereo, s16, 1536 kb/s (default)
      Metadata:
        HANDLER_NAME    : SoundHandler
        VENDOR_ID       : [0][0][0][0]
        _STATISTICS_TAGS: BPS DURATION NUMBER_OF_FRAMES NUMBER_OF_BYTES
        BPS             : 193261
        DURATION        : 00:23:46.645000000
        NUMBER_OF_FRAMES: 66875
        NUMBER_OF_BYTES : 34464370
        _STATISTICS_WRITING_APP: mkvpropedit v66.0.0 ('Josie') 64-bit
        _STATISTICS_WRITING_DATE_UTC: 2025-05-11 12:48:47
        encoder         : Lavc61.19.100 pcm_s16le
frame=  183 fps=0.0 q=-0.0 size=N/A time=00:00:07.63 bitrate=N/A speed=14.6x    frame=  404 fps=391 q=-0.0 size=N/A time=00:00:16.85 bitrate=N/A speed=16.3x    frame=  617 fps=396 q=-0.0 size=N/A time=00:00:25.73 bitrate=N/A speed=16.5x    frame=  858 fps=415 q=-0.0 size=N/A time=00:00:35.78 bitrate=N/A speed=17.3x    frame= 1105 fps=427 q=-0.0 size=N/A time=00:00:46.08 bitrate=N/A speed=17.8x    frame= 1354 fps=437 q=-0.0 size=N/A time=00:00:56.47 bitrate=N/A speed=18.2x    frame= 1592 fps=440 q=-0.0 size=N/A time=00:01:06.39 bitrate=N/A speed=18.4x    frame= 1793 fps=434 q=-0.0 size=N/A time=00:01:14.78 bitrate=N/A speed=18.1x    frame= 2013 fps=434 q=-0.0 size=N/A time=00:01:23.95 bitrate=N/A speed=18.1x    frame= 2220 fps=430 q=-0.0 size=N/A time=00:01:32.59 bitrate=N/A speed=17.9x    frame= 2396 fps=422 q=-0.0 size=N/A time=00:01:39.93 bitrate=N/A speed=17.6x    frame= 2591 fps=419 q=-0.0 size=N/A time=00:01:48.06 bitrate=N/A speed=17.5x    frame= 2755 fps=410 q=-0.0 size=N/A time=00:01:54.90 bitrate=N/A speed=17.1x    frame= 2979 fps=413 q=-0.0 size=N/A time=00:02:04.24 bitrate=N/A speed=17.2x    frame= 3188 fps=412 q=-0.0 size=N/A time=00:02:12.96 bitrate=N/A speed=17.2x    frame= 3409 fps=413 q=-0.0 size=N/A time=00:02:22.18 bitrate=N/A speed=17.2x    frame= 3609 fps=412 q=-0.0 size=N/A time=00:02:30.52 bitrate=N/A speed=17.2x    frame= 3862 fps=416 q=-0.0 size=N/A time=00:02:41.07 bitrate=N/A speed=17.3x    frame= 4137 fps=422 q=-0.0 size=N/A time=00:02:52.54 bitrate=N/A speed=17.6x    frame= 4413 fps=427 q=-0.0 size=N/A time=00:03:04.05 bitrate=N/A speed=17.8x    frame= 4693 fps=432 q=-0.0 size=N/A time=00:03:15.73 bitrate=N/A speed=  18x    frame= 4961 fps=437 q=-0.0 size=N/A time=00:03:26.91 bitrate=N/A speed=18.2x    frame= 5227 fps=440 q=-0.0 size=N/A time=00:03:38.00 bitrate=N/A speed=18.3x    frame= 5474 fps=441 q=-0.0 size=N/A time=00:03:48.31 bitrate=N/A speed=18.4x    frame= 5729 fps=444 q=-0.0 size=N/A time=00:03:58.94 bitrate=N/A speed=18.5x    frame= 5976 fps=445 q=-0.0 size=N/A time=00:04:09.24 bitrate=N/A speed=18.6x    frame= 6190 fps=444 q=-0.0 size=N/A time=00:04:18.17 bitrate=N/A speed=18.5x    frame= 6425 fps=444 q=-0.0 size=N/A time=00:04:27.97 bitrate=N/A speed=18.5x    frame= 6704 fps=448 q=-0.0 size=N/A time=00:04:39.61 bitrate=N/A speed=18.7x    frame= 6967 fps=450 q=-0.0 size=N/A time=00:04:50.58 bitrate=N/A speed=18.8x    frame= 7216 fps=451 q=-0.0 size=N/A time=00:05:00.96 bitrate=N/A speed=18.8x    frame= 7481 fps=453 q=-0.0 size=N/A time=00:05:12.02 bitrate=N/A speed=18.9x    frame= 7721 fps=453 q=-0.0 size=N/A time=00:05:22.07 bitrate=N/A speed=18.9x    frame= 7924 fps=452 q=-0.0 size=N/A time=00:05:30.49 bitrate=N/A speed=18.8x    frame= 8173 fps=452 q=-0.0 size=N/A time=00:05:40.88 bitrate=N/A speed=18.9x    frame= 8406 fps=452 q=-0.0 size=N/A time=00:05:50.60 bitrate=N/A speed=18.9x    frame= 8647 fps=453 q=-0.0 size=N/A time=00:06:00.65 bitrate=N/A speed=18.9x    frame= 8880 fps=453 q=-0.0 size=N/A time=00:06:10.37 bitrate=N/A speed=18.9x    frame= 9125 fps=453 q=-0.0 size=N/A time=00:06:20.58 bitrate=N/A speed=18.9x    frame= 9384 fps=455 q=-0.0 size=N/A time=00:06:31.39 bitrate=N/A speed=  19x    frame= 9636 fps=455 q=-0.0 size=N/A time=00:06:41.90 bitrate=N/A speed=  19x    frame= 9883 fps=456 q=-0.0 size=N/A time=00:06:52.20 bitrate=N/A speed=  19x    frame=10150 fps=458 q=-0.0 size=N/A time=00:07:03.33 bitrate=N/A speed=19.1x    frame=10384 fps=457 q=-0.0 size=N/A time=00:07:13.09 bitrate=N/A speed=19.1x    frame=10624 fps=458 q=-0.0 size=N/A time=00:07:23.10 bitrate=N/A speed=19.1x    frame=10865 fps=458 q=-0.0 size=N/A time=00:07:33.16 bitrate=N/A speed=19.1x    frame=11120 fps=459 q=-0.0 size=N/A time=00:07:43.79 bitrate=N/A speed=19.1x    frame=11381 fps=459 q=-0.0 size=N/A time=00:07:54.68 bitrate=N/A speed=19.2x    frame=11633 fps=460 q=-0.0 size=N/A time=00:08:05.19 bitrate=N/A speed=19.2x    frame=11896 fps=461 q=-0.0 size=N/A time=00:08:16.16 bitrate=N/A speed=19.2x    frame=12145 fps=461 q=-0.0 size=N/A time=00:08:26.54 bitrate=N/A speed=19.2x    frame=12354 fps=461 q=-0.0 size=N/A time=00:08:35.26 bitrate=N/A speed=19.2x    frame=12612 fps=461 q=-0.0 size=N/A time=00:08:46.02 bitrate=N/A speed=19.2x    frame=12856 fps=462 q=-0.0 size=N/A time=00:08:56.20 bitrate=N/A speed=19.2x    frame=13122 fps=462 q=-0.0 size=N/A time=00:09:07.29 bitrate=N/A speed=19.3x    frame=13379 fps=463 q=-0.0 size=N/A time=00:09:18.01 bitrate=N/A speed=19.3x    frame=13591 fps=462 q=-0.0 size=N/A time=00:09:26.85 bitrate=N/A speed=19.3x    frame=13827 fps=462 q=-0.0 size=N/A time=00:09:36.70 bitrate=N/A speed=19.3x    frame=14086 fps=463 q=-0.0 size=N/A time=00:09:47.50 bitrate=N/A speed=19.3x    frame=14302 fps=462 q=-0.0 size=N/A time=00:09:56.51 bitrate=N/A speed=19.3x    frame=14538 fps=462 q=-0.0 size=N/A time=00:10:06.35 bitrate=N/A speed=19.3x    frame=14808 fps=463 q=-0.0 size=N/A time=00:10:17.61 bitrate=N/A speed=19.3x    frame=15062 fps=463 q=-0.0 size=N/A time=00:10:28.21 bitrate=N/A speed=19.3x    frame=15294 fps=463 q=-0.0 size=N/A time=00:10:37.88 bitrate=N/A speed=19.3x    frame=15555 fps=464 q=-0.0 size=N/A time=00:10:48.77 bitrate=N/A speed=19.3x    frame=15827 fps=465 q=-0.0 size=N/A time=00:11:00.11 bitrate=N/A speed=19.4x    frame=16076 fps=465 q=-0.0 size=N/A time=00:11:10.50 bitrate=N/A speed=19.4x    frame=16352 fps=466 q=-0.0 size=N/A time=00:11:22.01 bitrate=N/A speed=19.4x    frame=16640 fps=467 q=-0.0 size=N/A time=00:11:34.02 bitrate=N/A speed=19.5x    frame=16910 fps=468 q=-0.0 size=N/A time=00:11:45.28 bitrate=N/A speed=19.5x    frame=17147 fps=468 q=-0.0 size=N/A time=00:11:55.17 bitrate=N/A speed=19.5x    frame=17396 fps=468 q=-0.0 size=N/A time=00:12:05.55 bitrate=N/A speed=19.5x    frame=17647 fps=469 q=-0.0 size=N/A time=00:12:16.02 bitrate=N/A speed=19.5x    frame=17862 fps=468 q=-0.0 size=N/A time=00:12:24.99 bitrate=N/A speed=19.5x    frame=18101 fps=468 q=-0.0 size=N/A time=00:12:34.96 bitrate=N/A speed=19.5x    frame=18296 fps=467 q=-0.0 size=N/A time=00:12:43.09 bitrate=N/A speed=19.5x    frame=18570 fps=467 q=-0.0 size=N/A time=00:12:54.52 bitrate=N/A speed=19.5x    frame=18837 fps=468 q=-0.0 size=N/A time=00:13:05.65 bitrate=N/A speed=19.5x    frame=19084 fps=468 q=-0.0 size=N/A time=00:13:15.96 bitrate=N/A speed=19.5x    frame=19346 fps=469 q=-0.0 size=N/A time=00:13:26.88 bitrate=N/A speed=19.5x    frame=19605 fps=469 q=-0.0 size=N/A time=00:13:37.69 bitrate=N/A speed=19.6x    frame=19840 fps=469 q=-0.0 size=N/A time=00:13:47.49 bitrate=N/A speed=19.6x    frame=20084 fps=469 q=-0.0 size=N/A time=00:13:57.67 bitrate=N/A speed=19.6x    frame=20361 fps=470 q=-0.0 size=N/A time=00:14:09.22 bitrate=N/A speed=19.6x    frame=20586 fps=469 q=-0.0 size=N/A time=00:14:18.60 bitrate=N/A speed=19.6x    frame=20862 fps=470 q=-0.0 size=N/A time=00:14:30.11 bitrate=N/A speed=19.6x    frame=21134 fps=471 q=-0.0 size=N/A time=00:14:41.46 bitrate=N/A speed=19.6x    frame=21396 fps=471 q=-0.0 size=N/A time=00:14:52.39 bitrate=N/A speed=19.7x    frame=21669 fps=472 q=-0.0 size=N/A time=00:15:03.77 bitrate=N/A speed=19.7x    frame=21920 fps=472 q=-0.0 size=N/A time=00:15:14.24 bitrate=N/A speed=19.7x    frame=22180 fps=473 q=-0.0 size=N/A time=00:15:25.09 bitrate=N/A speed=19.7x    frame=22412 fps=472 q=-0.0 size=N/A time=00:15:34.76 bitrate=N/A speed=19.7x    frame=22668 fps=473 q=-0.0 size=N/A time=00:15:45.44 bitrate=N/A speed=19.7x    frame=22908 fps=472 q=-0.0 size=N/A time=00:15:55.45 bitrate=N/A speed=19.7x    frame=23152 fps=472 q=-0.0 size=N/A time=00:16:05.63 bitrate=N/A speed=19.7x    frame=23384 fps=472 q=-0.0 size=N/A time=00:16:15.30 bitrate=N/A speed=19.7x    frame=23629 fps=472 q=-0.0 size=N/A time=00:16:25.52 bitrate=N/A speed=19.7x    frame=23881 fps=472 q=-0.0 size=N/A time=00:16:36.03 bitrate=N/A speed=19.7x    frame=24143 fps=473 q=-0.0 size=N/A time=00:16:46.96 bitrate=N/A speed=19.7x    frame=24412 fps=473 q=-0.0 size=N/A time=00:16:58.18 bitrate=N/A speed=19.7x    frame=24671 fps=474 q=-0.0 size=N/A time=00:17:08.98 bitrate=N/A speed=19.8x    frame=24940 fps=474 q=-0.0 size=N/A time=00:17:20.20 bitrate=N/A speed=19.8x    frame=25198 fps=474 q=-0.0 size=N/A time=00:17:30.96 bitrate=N/A speed=19.8x    frame=25455 fps=475 q=-0.0 size=N/A time=00:17:41.68 bitrate=N/A speed=19.8x    frame=25714 fps=475 q=-0.0 size=N/A time=00:17:52.48 bitrate=N/A speed=19.8x    frame=25961 fps=475 q=-0.0 size=N/A time=00:18:02.79 bitrate=N/A speed=19.8x    frame=26226 fps=475 q=-0.0 size=N/A time=00:18:13.84 bitrate=N/A speed=19.8x    frame=26483 fps=475 q=-0.0 size=N/A time=00:18:24.56 bitrate=N/A speed=19.8x    frame=26697 fps=475 q=-0.0 size=N/A time=00:18:33.48 bitrate=N/A speed=19.8x    frame=26960 fps=475 q=-0.0 size=N/A time=00:18:44.45 bitrate=N/A speed=19.8x    frame=27205 fps=475 q=-0.0 size=N/A time=00:18:54.67 bitrate=N/A speed=19.8x    frame=27481 fps=476 q=-0.0 size=N/A time=00:19:06.18 bitrate=N/A speed=19.8x    frame=27740 fps=476 q=-0.0 size=N/A time=00:19:16.98 bitrate=N/A speed=19.8x    frame=28008 fps=476 q=-0.0 size=N/A time=00:19:28.16 bitrate=N/A speed=19.9x    frame=28267 fps=477 q=-0.0 size=N/A time=00:19:38.96 bitrate=N/A speed=19.9x    frame=28515 fps=477 q=-0.0 size=N/A time=00:19:49.31 bitrate=N/A speed=19.9x    frame=28776 fps=477 q=-0.0 size=N/A time=00:20:00.19 bitrate=N/A speed=19.9x    frame=29034 fps=477 q=-0.0 size=N/A time=00:20:10.95 bitrate=N/A speed=19.9x    frame=29295 fps=477 q=-0.0 size=N/A time=00:20:21.84 bitrate=N/A speed=19.9x    frame=29552 fps=477 q=-0.0 size=N/A time=00:20:32.56 bitrate=N/A speed=19.9x    frame=29826 fps=478 q=-0.0 size=N/A time=00:20:43.99 bitrate=N/A speed=19.9x    frame=30077 fps=478 q=-0.0 size=N/A time=00:20:54.46 bitrate=N/A speed=19.9x    frame=30307 fps=478 q=-0.0 size=N/A time=00:21:04.05 bitrate=N/A speed=19.9x    frame=30528 fps=477 q=-0.0 size=N/A time=00:21:13.27 bitrate=N/A speed=19.9x    frame=30776 fps=477 q=-0.0 size=N/A time=00:21:23.61 bitrate=N/A speed=19.9x    frame=31016 fps=477 q=-0.0 size=N/A time=00:21:33.62 bitrate=N/A speed=19.9x    frame=31273 fps=477 q=-0.0 size=N/A time=00:21:44.34 bitrate=N/A speed=19.9x    frame=31530 fps=478 q=-0.0 size=N/A time=00:21:55.06 bitrate=N/A speed=19.9x    frame=31773 fps=478 q=-0.0 size=N/A time=00:22:05.19 bitrate=N/A speed=19.9x    frame=31996 fps=477 q=-0.0 size=N/A time=00:22:14.49 bitrate=N/A speed=19.9x    frame=32207 fps=477 q=-0.0 size=N/A time=00:22:23.30 bitrate=N/A speed=19.9x    frame=32439 fps=476 q=-0.0 size=N/A time=00:22:32.97 bitrate=N/A speed=19.9x    frame=32634 fps=476 q=-0.0 size=N/A time=00:22:41.10 bitrate=N/A speed=19.8x    frame=32822 fps=475 q=-0.0 size=N/A time=00:22:48.95 bitrate=N/A speed=19.8x    frame=33018 fps=474 q=-0.0 size=N/A time=00:22:57.12 bitrate=N/A speed=19.8x    frame=33219 fps=474 q=-0.0 size=N/A time=00:23:05.50 bitrate=N/A speed=19.8x    frame=33412 fps=473 q=-0.0 size=N/A time=00:23:13.55 bitrate=N/A speed=19.7x    frame=33613 fps=472 q=-0.0 size=N/A time=00:23:21.94 bitrate=N/A speed=19.7x    frame=33819 fps=472 q=-0.0 size=N/A time=00:23:30.53 bitrate=N/A speed=19.7x    frame=34050 fps=472 q=-0.0 size=N/A time=00:23:40.16 bitrate=N/A speed=19.7x    [Parsed_ssim_10 @ 000001d2ec2444c0] SSIM Y:0.994565 (22.647645) U:0.995645 (23.609936) V:0.995779 (23.746049) All:0.994947 (22.964538)
[out#0/null @ 000001d2df132d40] video:14697KiB audio:267500KiB subtitle:0KiB other streams:0KiB global headers:0KiB muxing overhead: unknown
frame=34203 fps=471 q=-0.0 Lsize=N/A time=00:23:46.55 bitrate=N/A speed=19.6x    
